<svg xmlns="http://www.w3.org/2000/svg" width="128" height="128" viewBox="0 0 128 128">
    <path d="M86.6 45.3H5.1c-2.8 0-5.1 2.3-5.1 5.1 0 16.7 8.9 31.8 23.2 39.9l-2.1 3.3c-1 1.6-1 3.6-.1 5.2s2.6 2.6 4.5 2.6h40.7c1.9 0 3.6-1 4.5-2.6.9-1.6.8-3.6-.1-5.2l-2.1-3.3c14.3-8.1 23.2-23.1 23.2-39.9 0-2.8-2.3-5.1-5.1-5.1zM59.2 83.4c-1.4.6-2.5 1.7-2.9 3.2-.5 1.5-.3 3 .7 4.6H34.7c1-1.5 1.2-3 .7-4.6-.5-1.4-1.5-2.6-2.9-3.2-11.9-4.8-20.1-15.5-21.9-27.9h70.6c-1.8 12.4-10.1 23.1-22 27.9z"/>
    <path d="M128 31.9c0-2.8-2.3-4.9-5.1-4.9H41.4c-2.8 0-5.1 2.1-5.1 5 0 1.7.1 3 .3 5h80.8c-1.6 11-8.7 21.4-19.1 26.7-1.7 7-4.9 13.3-9.1 19.3h13.3c1.9 0 3.6-1.1 4.5-2.8.9-1.6.8-3.7-.2-5.2l-2.1-3.2c14.4-8.1 23.3-23.1 23.3-39.9z"/>
</svg>
