<svg xmlns="http://www.w3.org/2000/svg" width="128" height="128" viewBox="0 0 128 128">
    <path d="M108.8 20.3V6.4c0-3.5-2.9-6.4-6.4-6.4H25.6c-3.5 0-6.4 2.9-6.4 6.4v13.9c0 5.1 2 10 5.6 13.6L55 64 24.8 94.1c-3.6 3.6-5.6 8.5-5.6 13.6v13.9c0 3.5 2.9 6.4 6.4 6.4h76.8c3.5 0 6.4-2.9 6.4-6.4v-13.9c0-5.1-2-10-5.6-13.6L73 64l30.1-30.1c3.7-3.6 5.7-8.5 5.7-13.6zM96 107.7v7.5H32v-7.5c0-1.7.7-3.3 1.9-4.5L64 73l30.1 30.1c1.2 1.3 1.9 2.9 1.9 4.6zm0-87.4c0 1.7-.7 3.3-1.9 4.5L64 55 33.9 24.8C32.7 23.6 32 22 32 20.3v-7.5h64v7.5z"/>
    <path d="M44.8 108.8L64 89.6l19.2 19.2z"/>
</svg>
