<?xml version="1.0" encoding="utf-8"?>
<!-- Generator: Adobe Illustrator 16.0.3, SVG Export Plug-In . SVG Version: 6.00 Build 0)  -->
<!DOCTYPE svg PUBLIC "-//W3C//DTD SVG 1.1//EN" "http://www.w3.org/Graphics/SVG/1.1/DTD/svg11.dtd">
<svg version="1.1" id="Layer_1" xmlns="http://www.w3.org/2000/svg" xmlns:xlink="http://www.w3.org/1999/xlink" x="0px" y="0px"
	 width="128px" height="128px" viewBox="0 0 128 128" enable-background="new 0 0 128 128" xml:space="preserve">
<path d="M103,77v-6h6V58H71v-6H58v6H20v13h6v6H13v13h13v24.7c0,7,5.9,13.3,13,13.3h50.8c7,0,13.2-6.3,13.2-13.3V90h12V77H103z
	 M89,115H39V71h50V115z"/>
<g>
	<path d="M59.7,38.1c-10.7-10.7-1.9-20.9,0-22.8l-9-9c-8.2,8.2-14.9,25.8,0,40.7L59.7,38.1z"/>
	<path d="M70.4,25.4l9,9C92,21.8,86.3,6.9,79.4,0l-9,8.9C72.3,10.9,77.9,17.9,70.4,25.4z"/>
</g>
<g>
</g>
<g>
</g>
<g>
</g>
<g>
</g>
<g>
</g>
<g>
</g>
<g>
</g>
<g>
</g>
<g>
</g>
<g>
</g>
<g>
</g>
<g>
</g>
<g>
</g>
<g>
</g>
<g>
</g>
</svg>
