<?xml version="1.0" encoding="utf-8"?>
<!-- Generator: Adobe Illustrator 16.0.3, SVG Export Plug-In . SVG Version: 6.00 Build 0)  -->
<!DOCTYPE svg PUBLIC "-//W3C//DTD SVG 1.1//EN" "http://www.w3.org/Graphics/SVG/1.1/DTD/svg11.dtd">
<svg version="1.1" id="Layer_1" xmlns="http://www.w3.org/2000/svg" xmlns:xlink="http://www.w3.org/1999/xlink" x="0px" y="0px"
	 width="128px" height="128px" viewBox="0 0 128 128" enable-background="new 0 0 128 128" xml:space="preserve">
<g>
	<path d="M128,89.6H0V102.4h10.15l10.925,10.925c1.193,1.2,2.825,1.875,4.525,1.875h76.8c1.693,0,3.324-0.675,4.519-1.875
		l10.925-10.925H128V89.6z"/>
	<path d="M121.6,83.2c0-29.594-22.449-54.025-51.199-57.219V12.8H57.6v13.182C28.837,29.175,6.4,53.606,6.4,83.2H121.6z M64,38.4
		v12.8c-10.706,0-20.65,5.313-26.606,14.225L26.75,58.306C35.1,45.837,49.025,38.4,64,38.4z"/>
</g>
<g>
</g>
<g>
</g>
<g>
</g>
<g>
</g>
<g>
</g>
<g>
</g>
<g>
</g>
<g>
</g>
<g>
</g>
<g>
</g>
<g>
</g>
<g>
</g>
<g>
</g>
<g>
</g>
<g>
</g>
</svg>
