<?xml version="1.0" encoding="utf-8"?>
<!-- Generator: Adobe Illustrator 16.0.3, SVG Export Plug-In . SVG Version: 6.00 Build 0)  -->
<!DOCTYPE svg PUBLIC "-//W3C//DTD SVG 1.1//EN" "http://www.w3.org/Graphics/SVG/1.1/DTD/svg11.dtd">
<svg version="1.1" id="Layer_1" xmlns="http://www.w3.org/2000/svg" xmlns:xlink="http://www.w3.org/1999/xlink" x="0px" y="0px"
	 width="128px" height="128px" viewBox="0 0 128 128" enable-background="new 0 0 128 128" xml:space="preserve">
<g display="none">
	<path display="inline" fill="#231F20" d="M108.5,70.3H40c-2.4,0-4.3,1.9-4.3,4.3c0,14.1,7.5,26.7,19.5,33.5l-1.7,2.7
		c-0.8,1.3-0.9,3-0.1,4.3c0.8,1.4,2.2,2.2,3.7,2.2h34.3c1.6,0,3-0.8,3.7-2.2c0.8-1.4,0.7-3-0.1-4.3l-1.7-2.7
		c12-6.8,19.5-19.5,19.5-33.5C112.7,72.2,110.8,70.3,108.5,70.3z M85.4,102.4c-1.2,0.5-2.1,1.5-2.5,2.7c-0.4,1.3-0.2,2.5,0.6,3.8
		H64.8c0.8-1.3,1-2.6,0.6-3.8c-0.4-1.2-1.3-2.2-2.5-2.7c-10-4.1-16.9-13-18.4-23.5h59.3C102.4,89.4,95.5,98.3,85.4,102.4z"/>
</g>
<g>
	<path d="M126.2,50.4L89.1,13.3c-2.4-2.4-6.3-2.4-8.7,0L0,93.6l8.7,8.7L29.1,82l32.7,32.7c1.2,1.2,2.8,1.8,4.4,1.8
		c1.6,0,3.2-0.6,4.4-1.8l55.6-55.6C128.6,56.7,128.6,52.8,126.2,50.4z M84.7,26.4l16,16L53.8,89.3l-16-16L84.7,26.4z M66.2,101.6
		L62.6,98l46.9-46.9l3.6,3.6L66.2,101.6z"/>
	<circle cx="84.7" cy="37.7" r="4.6"/>
</g>
<g>
</g>
<g>
</g>
<g>
</g>
<g>
</g>
<g>
</g>
<g>
</g>
<g>
</g>
<g>
</g>
<g>
</g>
<g>
</g>
<g>
</g>
<g>
</g>
<g>
</g>
<g>
</g>
<g>
</g>
</svg>
