<?xml version="1.0" encoding="utf-8"?>
<!-- Generator: Adobe Illustrator 16.0.3, SVG Export Plug-In . SVG Version: 6.00 Build 0)  -->
<!DOCTYPE svg PUBLIC "-//W3C//DTD SVG 1.1//EN" "http://www.w3.org/Graphics/SVG/1.1/DTD/svg11.dtd">
<svg version="1.1" id="Layer_1" xmlns="http://www.w3.org/2000/svg" xmlns:xlink="http://www.w3.org/1999/xlink" x="0px" y="0px"
	 width="128px" height="128px" viewBox="0 0 128 128" enable-background="new 0 0 128 128" xml:space="preserve">
<g>
	<path d="M86.6,45.3H5.1c-2.8,0-5.1,2.3-5.1,5.1c0,16.7,8.9,31.8,23.2,39.9l-2.1,3.3c-1,1.6-1,3.6-0.1,5.2c0.9,1.6,2.6,2.6,4.5,2.6
		h40.7c1.9,0,3.6-1,4.5-2.6c0.9-1.6,0.8-3.6-0.1-5.2l-2.1-3.3c14.3-8.1,23.2-23.1,23.2-39.9C91.7,47.6,89.4,45.3,86.6,45.3z
		 M59.2,83.4c-1.4,0.6-2.5,1.7-2.9,3.2c-0.5,1.5-0.3,3,0.7,4.6H34.7c1-1.5,1.2-3,0.7-4.6c-0.5-1.4-1.5-2.6-2.9-3.2
		c-11.9-4.8-20.1-15.5-21.9-27.9h70.6C79.4,67.9,71.1,78.6,59.2,83.4z"/>
</g>
<g>
	<g>
		<path d="M128,31.9c0-2.8-2.3-4.9-5.1-4.9H41.4c-2.8,0-5.1,2.1-5.1,5c0,1.7,0.1,3,0.3,5h10.2c0,0,0,0,0,0h70.6
			c-1.6,11-8.7,21.4-19.1,26.7c-1.7,7-4.9,13.3-9.1,19.3h13.3c1.9,0,3.6-1.1,4.5-2.8c0.9-1.6,0.8-3.7-0.2-5.2l-2.1-3.2
			C119.1,63.7,128,48.7,128,31.9z"/>
	</g>
</g>
<g display="none">
	<path display="inline" fill="#231F20" d="M108.5,70.3H40c-2.4,0-4.3,1.9-4.3,4.3c0,14.1,7.5,26.7,19.5,33.5l-1.7,2.7
		c-0.8,1.3-0.9,3-0.1,4.3c0.8,1.4,2.2,2.2,3.7,2.2h34.3c1.6,0,3-0.8,3.7-2.2c0.8-1.4,0.7-3-0.1-4.3l-1.7-2.7
		c12-6.8,19.5-19.5,19.5-33.5C112.7,72.2,110.8,70.3,108.5,70.3z M85.4,102.4c-1.2,0.5-2.1,1.5-2.5,2.7c-0.4,1.3-0.2,2.5,0.6,3.8
		H64.8c0.8-1.3,1-2.6,0.6-3.8c-0.4-1.2-1.3-2.2-2.5-2.7c-10-4.1-16.9-13-18.4-23.5h59.3C102.4,89.4,95.5,98.3,85.4,102.4z"/>
</g>
<g>
</g>
<g>
</g>
<g>
</g>
<g>
</g>
<g>
</g>
<g>
</g>
<g>
</g>
<g>
</g>
<g>
</g>
<g>
</g>
<g>
</g>
<g>
</g>
<g>
</g>
<g>
</g>
<g>
</g>
</svg>
