<?xml version="1.0" encoding="utf-8"?>
<!-- Generator: Adobe Illustrator 16.0.3, SVG Export Plug-In . SVG Version: 6.00 Build 0)  -->
<!DOCTYPE svg PUBLIC "-//W3C//DTD SVG 1.1//EN" "http://www.w3.org/Graphics/SVG/1.1/DTD/svg11.dtd">
<svg version="1.1" id="Layer_1" xmlns="http://www.w3.org/2000/svg" xmlns:xlink="http://www.w3.org/1999/xlink" x="0px" y="0px"
	 width="128px" height="128px" viewBox="0 0 128 128" enable-background="new 0 0 128 128" xml:space="preserve">
<g>
	<path d="M108.8,20.3V6.4c0-3.5-2.9-6.4-6.4-6.4H25.6c-3.5,0-6.4,2.9-6.4,6.4v13.9c0,5.1,2,10,5.6,13.6L55,64L24.8,94.1
		c-3.6,3.6-5.6,8.5-5.6,13.6v13.9c0,3.5,2.9,6.4,6.4,6.4h76.8c3.5,0,6.4-2.9,6.4-6.4v-13.9c0-5.1-2-10-5.6-13.6L73,64l30.1-30.1
		C106.8,30.3,108.8,25.4,108.8,20.3z M96,107.7v7.5H32v-7.5c0-1.7,0.7-3.3,1.9-4.5L64,73l30.1,30.1C95.3,104.4,96,106,96,107.7z
		 M96,20.3c0,1.7-0.7,3.3-1.9,4.5L64,55L33.9,24.8C32.7,23.6,32,22,32,20.3v-7.5h64V20.3z"/>
	<polygon points="44.8,108.8 64,89.6 83.2,108.8 	"/>
</g>
<g>
</g>
<g>
</g>
<g>
</g>
<g>
</g>
<g>
</g>
<g>
</g>
<g>
</g>
<g>
</g>
<g>
</g>
<g>
</g>
<g>
</g>
<g>
</g>
<g>
</g>
<g>
</g>
<g>
</g>
</svg>
